<svg xmlns="http://www.w3.org/2000/svg" viewBox="0 0 64 64" fill="none">
  <g transform="rotate(45 32 32)">
    <!-- Left strand (pink/magenta) -->
    <path d="M20 4 C20 14, 44 18, 44 28 C44 38, 20 42, 20 52 C20 58, 24 62, 24 62" stroke="#e040fb" stroke-width="4" stroke-linecap="round" fill="none"/>
    <!-- Right strand (cyan/blue) -->
    <path d="M44 4 C44 14, 20 18, 20 28 C20 38, 44 42, 44 52 C44 58, 40 62, 40 62" stroke="#00bcd4" stroke-width="4" stroke-linecap="round" fill="none"/>
    <!-- Rungs -->
    <line x1="22" y1="13" x2="42" y2="13" stroke="#ba68c8" stroke-width="2.5" stroke-linecap="round"/>
    <line x1="20" y1="22" x2="44" y2="22" stroke="#7c4dff" stroke-width="2.5" stroke-linecap="round"/>
    <line x1="20" y1="28" x2="44" y2="28" stroke="#7c4dff" stroke-width="2.5" stroke-linecap="round"/>
    <line x1="22" y1="34" x2="42" y2="34" stroke="#ba68c8" stroke-width="2.5" stroke-linecap="round"/>
    <line x1="22" y1="43" x2="42" y2="43" stroke="#ba68c8" stroke-width="2.5" stroke-linecap="round"/>
    <line x1="20" y1="52" x2="44" y2="52" stroke="#7c4dff" stroke-width="2.5" stroke-linecap="round"/>
  </g>
</svg>
